<mxfile host="app.diagrams.net" modified="2020-11-25T08:35:27.649Z" agent="5.0 (Windows NT 6.1; WOW64) AppleWebKit/537.36 (KHTML, like Gecko) Chrome/72.0.3626.81 Safari/537.36 SE 2.X MetaSr 1.0" etag="ieBQq_1ocogPo9Ke1YFk" version="13.10.2" type="github">
  <diagram id="tHObCBycBHgFKMGKk--f" name="第 1 页">
    <mxGraphModel dx="1391" dy="736" grid="1" gridSize="10" guides="1" tooltips="1" connect="1" arrows="1" fold="1" page="1" pageScale="1" pageWidth="900" pageHeight="200" math="0" shadow="0">
      <root>
        <mxCell id="0" />
        <mxCell id="1" parent="0" />
        <mxCell id="AxW_LpMcN__hR8cUmQVc-1" value="“震网”病毒" style="ellipse;whiteSpace=wrap;html=1;fillColor=#dae8fc;strokeColor=#6c8ebf;strokeWidth=3;fontSize=33;" vertex="1" parent="1">
          <mxGeometry x="70" y="20" width="270" height="160" as="geometry" />
        </mxCell>
        <mxCell id="AxW_LpMcN__hR8cUmQVc-2" value="伊朗核设施" style="ellipse;whiteSpace=wrap;html=1;strokeWidth=3;fontSize=33;fillColor=#fff2cc;strokeColor=#d6b656;" vertex="1" parent="1">
          <mxGeometry x="530" y="25" width="270" height="150" as="geometry" />
        </mxCell>
        <mxCell id="AxW_LpMcN__hR8cUmQVc-3" value="攻击" style="endArrow=classic;html=1;fontSize=30;exitX=1;exitY=0.5;exitDx=0;exitDy=0;entryX=0;entryY=0.5;entryDx=0;entryDy=0;strokeWidth=2;fontStyle=1" edge="1" parent="1" source="AxW_LpMcN__hR8cUmQVc-1" target="AxW_LpMcN__hR8cUmQVc-2">
          <mxGeometry width="50" height="50" relative="1" as="geometry">
            <mxPoint x="280" y="30" as="sourcePoint" />
            <mxPoint x="330" y="-20" as="targetPoint" />
          </mxGeometry>
        </mxCell>
      </root>
    </mxGraphModel>
  </diagram>
</mxfile>
